<?xml version="1.0" encoding="UTF-8"?>
<svg xmlns="http://www.w3.org/2000/svg" xmlns:xlink="http://www.w3.org/1999/xlink" width="32px" height="32px" viewBox="0 0 32 32" version="1.1">
<g id="surface1">
<path style=" stroke:none;fill-rule:nonzero;fill:rgb(0%,46.666667%,71.764708%);fill-opacity:1;" d="M 29.105469 0 L 2.894531 0 C 1.296875 0 0 1.296875 0 2.894531 L 0 29.105469 C 0 30.703125 1.296875 32 2.894531 32 L 29.105469 32 C 30.703125 32 32 30.703125 32 29.105469 L 32 2.894531 C 32 1.296875 30.703125 0 29.105469 0 Z M 9.902344 27.632812 C 9.902344 28.097656 9.523438 28.472656 9.058594 28.472656 L 5.472656 28.472656 C 5.007812 28.472656 4.632812 28.097656 4.632812 27.632812 L 4.632812 12.597656 C 4.632812 12.132812 5.007812 11.757812 5.472656 11.757812 L 9.058594 11.757812 C 9.523438 11.757812 9.902344 12.132812 9.902344 12.597656 Z M 7.265625 10.339844 C 5.386719 10.339844 3.859375 8.816406 3.859375 6.933594 C 3.859375 5.050781 5.386719 3.527344 7.265625 3.527344 C 9.148438 3.527344 10.671875 5.050781 10.671875 6.933594 C 10.671875 8.816406 9.148438 10.339844 7.265625 10.339844 Z M 28.640625 27.699219 C 28.640625 28.125 28.292969 28.472656 27.867188 28.472656 L 24.019531 28.472656 C 23.589844 28.472656 23.246094 28.125 23.246094 27.699219 L 23.246094 20.648438 C 23.246094 19.597656 23.554688 16.039062 20.496094 16.039062 C 18.125 16.039062 17.644531 18.472656 17.546875 19.566406 L 17.546875 27.699219 C 17.546875 28.125 17.199219 28.472656 16.773438 28.472656 L 13.050781 28.472656 C 12.625 28.472656 12.277344 28.125 12.277344 27.699219 L 12.277344 12.53125 C 12.277344 12.105469 12.625 11.757812 13.050781 11.757812 L 16.773438 11.757812 C 17.199219 11.757812 17.546875 12.105469 17.546875 12.53125 L 17.546875 13.84375 C 18.425781 12.523438 19.734375 11.503906 22.515625 11.503906 C 28.675781 11.503906 28.640625 17.261719 28.640625 20.421875 Z M 28.640625 27.699219 "/>
</g>
</svg>
