<svg width="32" height="32" viewBox="0 0 32 32" fill="none" xmlns="http://www.w3.org/2000/svg">
<rect width="32" height="32" rx="3" fill="#2867B2"/>
<path d="M9.37321 28H4.39643V11.9768H9.37321V28ZM6.88214 9.79107C5.29107 9.79107 4 8.47321 4 6.88214C4 6.11607 4.30536 5.3875 4.84643 4.84643C5.3875 4.30536 6.12143 4 6.88214 4C7.64286 4 8.37679 4.30536 8.91786 4.84643C9.45893 5.3875 9.76429 6.12143 9.76429 6.88214C9.76429 8.47321 8.47321 9.79107 6.88214 9.79107ZM27.9946 28H23.0286V20.2C23.0286 18.3411 22.9911 15.9571 20.4411 15.9571C17.8536 15.9571 17.4571 17.9768 17.4571 20.0661V28H12.4857V11.9768H17.2589V14.1625H17.3286C17.9929 12.9036 19.6161 11.575 22.0375 11.575C27.0732 11.575 28 14.8911 28 19.1982V28H27.9946Z" fill="white"/>
</svg>
