<svg width="32" height="32" viewBox="0 0 32 32" fill="none" xmlns="http://www.w3.org/2000/svg">
<rect width="32" height="32" rx="16" fill="#2867B2"/>
<path d="M11.0299 25H7.29732V12.9826H11.0299V25ZM9.16161 11.3433C7.9683 11.3433 7 10.3549 7 9.16161C7 8.58705 7.22902 8.04063 7.63482 7.63482C8.04063 7.22902 8.59107 7 9.16161 7C9.73214 7 10.2826 7.22902 10.6884 7.63482C11.0942 8.04063 11.3232 8.59107 11.3232 9.16161C11.3232 10.3549 10.3549 11.3433 9.16161 11.3433ZM24.996 25H21.2714V19.15C21.2714 17.7558 21.2433 15.9679 19.3308 15.9679C17.3902 15.9679 17.0929 17.4826 17.0929 19.0496V25H13.3643V12.9826H16.9442V14.6219H16.9964C17.4946 13.6777 18.7121 12.6812 20.5281 12.6812C24.3049 12.6812 25 15.1683 25 18.3987V25H24.996Z" fill="white"/>
</svg>
