<svg width="32" height="32" viewBox="0 0 32 32" fill="none" xmlns="http://www.w3.org/2000/svg">
<path d="M0 16C0 24.8366 7.16344 32 16 32C24.8366 32 32 24.8366 32 16C32 7.16344 24.8366 0 16 0C7.16344 0 0 7.16344 0 16Z" fill="#FF0000"/>
<g clip-path="url(#clip0_56_108)">
<path d="M25.1891 11.2321C24.9616 10.3793 24.294 9.70911 23.4444 9.48082C21.9045 9.06665 15.7334 9.06665 15.7334 9.06665C15.7334 9.06665 9.56223 9.06665 8.02392 9.48082C7.17435 9.70911 6.50672 10.3793 6.2793 11.2321C5.8667 12.7763 5.8667 16 5.8667 16C5.8667 16 5.8667 19.2237 6.2793 20.7679C6.50672 21.6207 7.17435 22.2909 8.02392 22.5191C9.56223 22.9333 15.7334 22.9333 15.7334 22.9333C15.7334 22.9333 21.9045 22.9333 23.4428 22.5191C24.2924 22.2909 24.96 21.6207 25.1874 20.7679C25.6 19.2237 25.6 16 25.6 16C25.6 16 25.6 12.7763 25.1874 11.2321H25.1891Z" fill="white"/>
<path d="M13.7598 18.9709L18.888 16L13.7598 13.029V18.9709Z" fill="#FF0000"/>
</g>
<defs>
<clipPath id="clip0_56_108">
<rect width="19.7333" height="13.8667" fill="white" transform="translate(5.8667 9.06665)"/>
</clipPath>
</defs>
</svg>
